<mxfile host="app.diagrams.net" modified="2024-03-08T14:53:11.575Z" agent="Mozilla/5.0 (Windows NT 10.0; Win64; x64) AppleWebKit/537.36 (KHTML, like Gecko) Chrome/122.0.0.0 Safari/537.36" etag="oJ8qpVG6Vf-n2ZUEWK2W" version="24.0.2" type="github">
  <diagram id="C5RBs43oDa-KdzZeNtuy" name="Page-1">
    <mxGraphModel dx="1220" dy="666" grid="1" gridSize="10" guides="1" tooltips="1" connect="1" arrows="1" fold="1" page="1" pageScale="1" pageWidth="827" pageHeight="1169" math="0" shadow="0">
      <root>
        <mxCell id="WIyWlLk6GJQsqaUBKTNV-0" />
        <mxCell id="WIyWlLk6GJQsqaUBKTNV-1" parent="WIyWlLk6GJQsqaUBKTNV-0" />
        <mxCell id="IdD_MoymZV_QBWQk7jaU-36" style="rounded=0;orthogonalLoop=1;jettySize=auto;html=1;exitX=1;exitY=0.5;exitDx=0;exitDy=0;entryX=0;entryY=0.5;entryDx=0;entryDy=0;endArrow=none;endFill=0;startArrow=none;startFill=0;" edge="1" parent="WIyWlLk6GJQsqaUBKTNV-1" source="IdD_MoymZV_QBWQk7jaU-3" target="IdD_MoymZV_QBWQk7jaU-18">
          <mxGeometry relative="1" as="geometry" />
        </mxCell>
        <mxCell id="IdD_MoymZV_QBWQk7jaU-3" value="&lt;u&gt;BPScanner1 : BoardingPassScannerDriver&lt;/u&gt;" style="swimlane;fontStyle=0;childLayout=stackLayout;horizontal=1;startSize=30;horizontalStack=0;resizeParent=1;resizeParentMax=0;resizeLast=0;collapsible=1;marginBottom=0;whiteSpace=wrap;html=1;" vertex="1" parent="WIyWlLk6GJQsqaUBKTNV-1">
          <mxGeometry x="90" y="140" width="180" height="60" as="geometry" />
        </mxCell>
        <mxCell id="IdD_MoymZV_QBWQk7jaU-35" style="rounded=0;orthogonalLoop=1;jettySize=auto;html=1;exitX=1;exitY=0.5;exitDx=0;exitDy=0;entryX=0;entryY=0.5;entryDx=0;entryDy=0;endArrow=none;endFill=0;startArrow=none;startFill=0;" edge="1" parent="WIyWlLk6GJQsqaUBKTNV-1" source="IdD_MoymZV_QBWQk7jaU-7" target="IdD_MoymZV_QBWQk7jaU-18">
          <mxGeometry relative="1" as="geometry" />
        </mxCell>
        <mxCell id="IdD_MoymZV_QBWQk7jaU-7" value="&lt;u&gt;CargoHub : CargoScannerReceiver&lt;/u&gt;" style="swimlane;fontStyle=0;childLayout=stackLayout;horizontal=1;startSize=30;horizontalStack=0;resizeParent=1;resizeParentMax=0;resizeLast=0;collapsible=1;marginBottom=0;whiteSpace=wrap;html=1;" vertex="1" parent="WIyWlLk6GJQsqaUBKTNV-1">
          <mxGeometry x="90" y="270" width="140" height="60" as="geometry" />
        </mxCell>
        <mxCell id="IdD_MoymZV_QBWQk7jaU-37" style="rounded=0;orthogonalLoop=1;jettySize=auto;html=1;exitX=1;exitY=0.5;exitDx=0;exitDy=0;entryX=0;entryY=0.5;entryDx=0;entryDy=0;endArrow=none;endFill=0;startArrow=none;startFill=0;" edge="1" parent="WIyWlLk6GJQsqaUBKTNV-1" source="IdD_MoymZV_QBWQk7jaU-11" target="IdD_MoymZV_QBWQk7jaU-18">
          <mxGeometry relative="1" as="geometry" />
        </mxCell>
        <mxCell id="IdD_MoymZV_QBWQk7jaU-11" value="&lt;u&gt;Core : SkyGateCore&lt;/u&gt;" style="swimlane;fontStyle=0;childLayout=stackLayout;horizontal=1;startSize=30;horizontalStack=0;resizeParent=1;resizeParentMax=0;resizeLast=0;collapsible=1;marginBottom=0;whiteSpace=wrap;html=1;" vertex="1" parent="WIyWlLk6GJQsqaUBKTNV-1">
          <mxGeometry x="90" y="380" width="140" height="60" as="geometry" />
        </mxCell>
        <mxCell id="IdD_MoymZV_QBWQk7jaU-18" value="&lt;u&gt;Broker : EventBroker&lt;/u&gt;" style="swimlane;fontStyle=0;childLayout=stackLayout;horizontal=1;startSize=30;horizontalStack=0;resizeParent=1;resizeParentMax=0;resizeLast=0;collapsible=1;marginBottom=0;whiteSpace=wrap;html=1;" vertex="1" parent="WIyWlLk6GJQsqaUBKTNV-1">
          <mxGeometry x="370" y="270" width="140" height="60" as="geometry" />
        </mxCell>
        <mxCell id="IdD_MoymZV_QBWQk7jaU-22" value="&lt;u&gt;Passengers : Topic&lt;/u&gt;" style="swimlane;fontStyle=0;childLayout=stackLayout;horizontal=1;startSize=30;horizontalStack=0;resizeParent=1;resizeParentMax=0;resizeLast=0;collapsible=1;marginBottom=0;whiteSpace=wrap;html=1;" vertex="1" parent="WIyWlLk6GJQsqaUBKTNV-1">
          <mxGeometry x="570" y="140" width="180" height="60" as="geometry" />
        </mxCell>
        <mxCell id="IdD_MoymZV_QBWQk7jaU-39" value="&lt;div&gt;&lt;br&gt;&lt;/div&gt;" style="text;html=1;align=left;verticalAlign=middle;resizable=0;points=[];autosize=1;strokeColor=none;fillColor=none;" vertex="1" parent="IdD_MoymZV_QBWQk7jaU-22">
          <mxGeometry y="30" width="180" height="30" as="geometry" />
        </mxCell>
        <mxCell id="IdD_MoymZV_QBWQk7jaU-30" style="rounded=0;orthogonalLoop=1;jettySize=auto;html=1;exitX=0;exitY=0.5;exitDx=0;exitDy=0;endArrow=none;endFill=0;startArrow=none;startFill=0;" edge="1" parent="WIyWlLk6GJQsqaUBKTNV-1" source="IdD_MoymZV_QBWQk7jaU-26">
          <mxGeometry relative="1" as="geometry">
            <mxPoint x="510" y="300" as="targetPoint" />
          </mxGeometry>
        </mxCell>
        <mxCell id="IdD_MoymZV_QBWQk7jaU-53" style="edgeStyle=orthogonalEdgeStyle;rounded=0;orthogonalLoop=1;jettySize=auto;html=1;entryX=0;entryY=0.5;entryDx=0;entryDy=0;endArrow=none;endFill=0;startArrow=none;startFill=0;" edge="1" parent="WIyWlLk6GJQsqaUBKTNV-1" source="IdD_MoymZV_QBWQk7jaU-26" target="IdD_MoymZV_QBWQk7jaU-47">
          <mxGeometry relative="1" as="geometry" />
        </mxCell>
        <mxCell id="IdD_MoymZV_QBWQk7jaU-26" value="&lt;u&gt;Cargo : Topic&lt;/u&gt;" style="swimlane;fontStyle=0;childLayout=stackLayout;horizontal=1;startSize=30;horizontalStack=0;resizeParent=1;resizeParentMax=0;resizeLast=0;collapsible=1;marginBottom=0;whiteSpace=wrap;html=1;" vertex="1" parent="WIyWlLk6GJQsqaUBKTNV-1">
          <mxGeometry x="570" y="230" width="140" height="60" as="geometry" />
        </mxCell>
        <mxCell id="IdD_MoymZV_QBWQk7jaU-31" style="rounded=0;orthogonalLoop=1;jettySize=auto;html=1;exitX=0;exitY=0.5;exitDx=0;exitDy=0;entryX=1;entryY=0.5;entryDx=0;entryDy=0;endArrow=none;endFill=0;startArrow=none;startFill=0;" edge="1" parent="WIyWlLk6GJQsqaUBKTNV-1" source="IdD_MoymZV_QBWQk7jaU-27" target="IdD_MoymZV_QBWQk7jaU-18">
          <mxGeometry relative="1" as="geometry" />
        </mxCell>
        <mxCell id="IdD_MoymZV_QBWQk7jaU-27" value="&lt;u&gt;Access : Topic&lt;/u&gt;" style="swimlane;fontStyle=0;childLayout=stackLayout;horizontal=1;startSize=30;horizontalStack=0;resizeParent=1;resizeParentMax=0;resizeLast=0;collapsible=1;marginBottom=0;whiteSpace=wrap;html=1;" vertex="1" parent="WIyWlLk6GJQsqaUBKTNV-1">
          <mxGeometry x="570" y="330" width="140" height="60" as="geometry" />
        </mxCell>
        <mxCell id="IdD_MoymZV_QBWQk7jaU-33" style="rounded=0;orthogonalLoop=1;jettySize=auto;html=1;exitX=0;exitY=0.5;exitDx=0;exitDy=0;endArrow=none;endFill=0;startArrow=none;startFill=0;" edge="1" parent="WIyWlLk6GJQsqaUBKTNV-1" source="IdD_MoymZV_QBWQk7jaU-28">
          <mxGeometry relative="1" as="geometry">
            <mxPoint x="510" y="300" as="targetPoint" />
          </mxGeometry>
        </mxCell>
        <mxCell id="IdD_MoymZV_QBWQk7jaU-28" value="&lt;u&gt;Flights : Topic&lt;/u&gt;" style="swimlane;fontStyle=0;childLayout=stackLayout;horizontal=1;startSize=30;horizontalStack=0;resizeParent=1;resizeParentMax=0;resizeLast=0;collapsible=1;marginBottom=0;whiteSpace=wrap;html=1;" vertex="1" parent="WIyWlLk6GJQsqaUBKTNV-1">
          <mxGeometry x="570" y="430" width="140" height="60" as="geometry" />
        </mxCell>
        <mxCell id="IdD_MoymZV_QBWQk7jaU-29" value="" style="endArrow=none;html=1;rounded=0;entryX=1;entryY=0.5;entryDx=0;entryDy=0;endFill=0;startArrow=none;startFill=0;" edge="1" parent="WIyWlLk6GJQsqaUBKTNV-1" target="IdD_MoymZV_QBWQk7jaU-18">
          <mxGeometry width="50" height="50" relative="1" as="geometry">
            <mxPoint x="570" y="180" as="sourcePoint" />
            <mxPoint x="500.96000000000004" y="270" as="targetPoint" />
          </mxGeometry>
        </mxCell>
        <mxCell id="IdD_MoymZV_QBWQk7jaU-46" style="rounded=0;orthogonalLoop=1;jettySize=auto;html=1;exitX=1;exitY=0.5;exitDx=0;exitDy=0;entryX=0;entryY=0.5;entryDx=0;entryDy=0;endArrow=none;endFill=0;startArrow=none;startFill=0;" edge="1" parent="WIyWlLk6GJQsqaUBKTNV-1" source="IdD_MoymZV_QBWQk7jaU-42" target="IdD_MoymZV_QBWQk7jaU-18">
          <mxGeometry relative="1" as="geometry" />
        </mxCell>
        <mxCell id="IdD_MoymZV_QBWQk7jaU-42" value="&lt;u&gt;AirportControl : AirportControlHub&lt;/u&gt;" style="swimlane;fontStyle=0;childLayout=stackLayout;horizontal=1;startSize=30;horizontalStack=0;resizeParent=1;resizeParentMax=0;resizeLast=0;collapsible=1;marginBottom=0;whiteSpace=wrap;html=1;" vertex="1" parent="WIyWlLk6GJQsqaUBKTNV-1">
          <mxGeometry x="90" y="470" width="140" height="60" as="geometry" />
        </mxCell>
        <mxCell id="IdD_MoymZV_QBWQk7jaU-58" style="rounded=0;orthogonalLoop=1;jettySize=auto;html=1;endArrow=none;endFill=0;startArrow=none;startFill=0;" edge="1" parent="WIyWlLk6GJQsqaUBKTNV-1" source="IdD_MoymZV_QBWQk7jaU-47" target="IdD_MoymZV_QBWQk7jaU-22">
          <mxGeometry relative="1" as="geometry" />
        </mxCell>
        <mxCell id="IdD_MoymZV_QBWQk7jaU-59" style="rounded=0;orthogonalLoop=1;jettySize=auto;html=1;endArrow=none;endFill=0;startArrow=none;startFill=0;" edge="1" parent="WIyWlLk6GJQsqaUBKTNV-1" source="IdD_MoymZV_QBWQk7jaU-47" target="IdD_MoymZV_QBWQk7jaU-27">
          <mxGeometry relative="1" as="geometry" />
        </mxCell>
        <mxCell id="IdD_MoymZV_QBWQk7jaU-60" style="rounded=0;orthogonalLoop=1;jettySize=auto;html=1;endArrow=none;endFill=0;startArrow=none;startFill=0;exitX=0;exitY=0.5;exitDx=0;exitDy=0;" edge="1" parent="WIyWlLk6GJQsqaUBKTNV-1" source="IdD_MoymZV_QBWQk7jaU-47">
          <mxGeometry relative="1" as="geometry">
            <mxPoint x="710" y="460" as="targetPoint" />
            <mxPoint x="941.4285714285716" y="280" as="sourcePoint" />
          </mxGeometry>
        </mxCell>
        <mxCell id="IdD_MoymZV_QBWQk7jaU-47" value="&lt;u&gt;Core : SkyGateCore&lt;/u&gt;" style="swimlane;fontStyle=0;childLayout=stackLayout;horizontal=1;startSize=30;horizontalStack=0;resizeParent=1;resizeParentMax=0;resizeLast=0;collapsible=1;marginBottom=0;whiteSpace=wrap;html=1;" vertex="1" parent="WIyWlLk6GJQsqaUBKTNV-1">
          <mxGeometry x="860" y="230" width="140" height="60" as="geometry" />
        </mxCell>
        <mxCell id="IdD_MoymZV_QBWQk7jaU-55" style="rounded=0;orthogonalLoop=1;jettySize=auto;html=1;entryX=1;entryY=0.5;entryDx=0;entryDy=0;endArrow=none;endFill=0;startArrow=none;startFill=0;exitX=0;exitY=0.5;exitDx=0;exitDy=0;" edge="1" parent="WIyWlLk6GJQsqaUBKTNV-1" source="IdD_MoymZV_QBWQk7jaU-48" target="IdD_MoymZV_QBWQk7jaU-28">
          <mxGeometry relative="1" as="geometry" />
        </mxCell>
        <mxCell id="IdD_MoymZV_QBWQk7jaU-57" style="rounded=0;orthogonalLoop=1;jettySize=auto;html=1;entryX=1;entryY=0.5;entryDx=0;entryDy=0;endArrow=none;endFill=0;startArrow=none;startFill=0;exitX=0;exitY=0.5;exitDx=0;exitDy=0;" edge="1" parent="WIyWlLk6GJQsqaUBKTNV-1" source="IdD_MoymZV_QBWQk7jaU-48" target="IdD_MoymZV_QBWQk7jaU-26">
          <mxGeometry relative="1" as="geometry" />
        </mxCell>
        <mxCell id="IdD_MoymZV_QBWQk7jaU-48" value="&lt;u&gt;airControl : AirportControl&lt;/u&gt;" style="swimlane;fontStyle=0;childLayout=stackLayout;horizontal=1;startSize=30;horizontalStack=0;resizeParent=1;resizeParentMax=0;resizeLast=0;collapsible=1;marginBottom=0;whiteSpace=wrap;html=1;" vertex="1" parent="WIyWlLk6GJQsqaUBKTNV-1">
          <mxGeometry x="860" y="390" width="140" height="60" as="geometry" />
        </mxCell>
      </root>
    </mxGraphModel>
  </diagram>
</mxfile>
